<?xml version="1.0" encoding="UTF-8" standalone="no"?>
<!-- Created with Inkscape (http://www.inkscape.org/) -->

<svg
   xmlns:dc="http://purl.org/dc/elements/1.1/"
   xmlns:cc="http://creativecommons.org/ns#"
   xmlns:rdf="http://www.w3.org/1999/02/22-rdf-syntax-ns#"
   xmlns:svg="http://www.w3.org/2000/svg"
   xmlns="http://www.w3.org/2000/svg"
   xmlns:sodipodi="http://sodipodi.sourceforge.net/DTD/sodipodi-0.dtd"
   xmlns:inkscape="http://www.inkscape.org/namespaces/inkscape"
   width="500"
   height="500"
   viewBox="0 0 132.29167 132.29167"
   version="1.1"
   id="svg8"
   inkscape:version="0.92.4 5da689c313, 2019-01-14"
   sodipodi:docname="logo.svg"
   inkscape:export-filename="/home/thincats/Documents/Learn/vue/trash-classify/src/assets/logo-64.png"
   inkscape:export-xdpi="12.287999"
   inkscape:export-ydpi="12.287999">
  <defs
     id="defs2" />
  <sodipodi:namedview
     id="base"
     pagecolor="#ffffff"
     bordercolor="#666666"
     borderopacity="1.0"
     inkscape:pageopacity="0.0"
     inkscape:pageshadow="2"
     inkscape:zoom="1"
     inkscape:cx="138.59388"
     inkscape:cy="226.00012"
     inkscape:document-units="mm"
     inkscape:current-layer="layer1"
     showgrid="false"
     inkscape:window-width="1920"
     inkscape:window-height="1008"
     inkscape:window-x="0"
     inkscape:window-y="0"
     inkscape:window-maximized="1"
     units="px"
     width="480px" />
  <metadata
     id="metadata5">
    <rdf:RDF>
      <cc:Work
         rdf:about="">
        <dc:format>image/svg+xml</dc:format>
        <dc:type
           rdf:resource="http://purl.org/dc/dcmitype/StillImage" />
        <dc:title></dc:title>
      </cc:Work>
    </rdf:RDF>
  </metadata>
  <g
     inkscape:label="Layer 1"
     inkscape:groupmode="layer"
     id="layer1"
     transform="translate(0,-164.70833)">
    <g
       id="layer1-3"
       inkscape:label="Layer 1"
       transform="matrix(1.5892429,0,0,1.6633526,-99.435782,-13.851787)"
       style="stroke-width:0.6150533">
      <path
         inkscape:connector-curvature="0"
         id="path3799"
         d=""
         style="fill:#000000;stroke-width:0.2169771" />
      <path
         inkscape:connector-curvature="0"
         id="path3797"
         d=""
         style="fill:#000000;stroke-width:0.2169771" />
      <path
         inkscape:connector-curvature="0"
         d="m 107.45405,107.62825 c -0.29881,0.005 -0.60574,0.0154 -0.92966,0.031 -4.56422,0.22079 -11.534087,2.57365 -16.962267,5.72576 -6.634699,3.85272 -11.499572,8.72327 -15.935983,15.95561 -0.924801,1.50763 -1.98129,3.09115 -2.347661,3.51917 -0.819568,0.95748 -2.901847,2.06889 -5.578988,2.97759 -1.084562,0.36813 -2.116619,0.82184 -2.293398,1.00769 -0.294238,0.30934 -0.330142,1.45282 -0.422198,13.51855 l -0.100251,13.18059 14.583606,0.0496 c 8.02101,0.0273 26.73507,0.0702 41.58712,0.0956 l 27.00404,0.046 -0.12041,-0.87643 c -0.0661,-0.48226 -0.11989,-6.47798 -0.11989,-13.32374 v -12.44677 l -39.45133,-0.0248 c -21.698199,-0.0136 -40.089252,-0.0794 -40.868828,-0.14625 l -1.417484,-0.12144 1.954922,-0.62322 c 3.468322,-1.10595 3.973472,-1.16642 11.368812,-1.3596 3.793937,-0.0991 7.745611,-0.26731 8.781378,-0.37362 5.189413,-0.53265 12.204883,-2.81816 17.20463,-5.60535 5.11982,-2.85411 7.92514,-5.25895 12.12123,-10.38954 1.2916,-1.57926 3.07521,-3.5593 3.96306,-4.39973 1.58807,-1.50324 2.49156,-2.04828 5.63583,-3.40083 0.55629,-0.2393 0.86023,-0.46804 0.75551,-0.56844 -0.0964,-0.0924 -1.74865,-0.25399 -3.67161,-0.35864 -2.94187,-0.1601 -4.0354,-0.31076 -6.89777,-0.95033 -4.07332,-0.91014 -5.75075,-1.17132 -7.84241,-1.13843 z m 0.3886,0.56172 c 0.79753,0.008 1.74097,0.12834 3.01532,0.34314 2.96536,0.49981 9.44645,2.07873 9.44645,2.30115 0,0.0917 -0.19142,0.20779 -0.42529,0.25838 -6.44163,1.39355 -12.08196,3.3063 -20.929987,7.09776 -3.05555,1.30933 -3.33249,1.39888 -3.49953,1.12861 -0.49257,-0.797 0.99963,-3.68341 2.99207,-5.78828 1.899477,-2.00667 3.539637,-3.24795 5.770697,-4.36666 1.3766,-0.69024 2.30106,-0.98783 3.63027,-0.9741 z m -5.52937,0.77256 c 0.0262,-0.001 0.046,8e-4 0.0594,0.005 0.10088,0.0336 -0.67958,0.69652 -1.73478,1.47278 -1.055197,0.77626 -2.374527,1.90357 -2.931607,2.50527 -1.27814,1.38055 -2.68998,4.16038 -2.85563,5.62188 -0.0948,0.83663 -0.2345,1.14977 -0.71469,1.60611 -0.32812,0.31183 -2.50458,1.56067 -4.83691,2.77502 -4.551111,2.36959 -5.164154,2.61905 -5.336114,2.17093 -0.373272,-0.97273 1.155062,-4.84948 3.012736,-7.6414 1.571678,-2.36208 2.896178,-3.6275 4.681888,-4.47362 3.0347,-1.43793 9.843567,-4.0125 10.655677,-4.04214 z m 18.24591,2.66599 c 0.0371,0.003 0.0619,0.0107 0.0739,0.0227 0.14892,0.14893 -4.85425,5.08185 -5.80895,5.7273 -0.46775,0.31624 -1.27604,0.72667 -1.79576,0.91209 -1.50427,0.53668 -9.61834,0.53366 -10.91406,-0.004 -0.58435,-0.24253 -0.36018,-0.4857 1.03973,-1.12913 3.39518,-1.56049 16.25431,-5.62672 17.40514,-5.52886 z m -33.243448,3.91501 c 0.06414,0 -0.323299,0.65149 -0.860412,1.44746 -1.883423,2.7911 -2.872406,5.1758 -3.254581,7.84603 l -0.221176,1.54616 -5.103047,3.16725 c -2.806473,1.74185 -5.173758,3.17244 -5.260661,3.17913 -0.243477,0.0188 1.07436,-2.28293 2.825668,-4.9351 3.025117,-4.5812 7.145859,-9.07928 10.314615,-11.25874 0.793403,-0.54571 1.495454,-0.99219 1.559594,-0.99219 z m 12.383741,3.04116 1.656227,0.29249 c 1.10412,0.19491 3.43647,0.32577 6.99544,0.39222 4.17847,0.078 5.33869,0.15256 5.33869,0.34313 0,0.27709 -3.40583,3.55403 -5.32887,5.12734 -0.73853,0.60422 -1.58134,1.11758 -1.99161,1.21284 -0.69528,0.16145 -4.12071,0.1901 -5.24723,0.0439 -3.002747,-0.38962 -6.302307,-1.31591 -8.771037,-2.4629 l -1.43402,-0.66663 4.39095,-2.14095 z m -9.6299,4.66535 2.35438,1.06091 c 3.43042,1.54538 5.74511,2.05896 11.221527,2.49029 1.88744,0.14866 1.86813,0.19066 -0.73018,1.56993 -2.22547,1.18134 -5.251467,2.45781 -7.638807,3.22254 -2.10382,0.67392 -2.36795,0.68525 -4.26486,0.18139 -2.72847,-0.72475 -8.320886,-3.41781 -8.312155,-4.00286 0.0044,-0.29402 1.1347,-1.02391 4.581115,-2.95744 z m -8.745206,4.9475 1.323951,0.74982 c 1.680631,0.95236 4.555326,2.243 6.803725,3.05408 0.96147,0.34684 1.74821,0.68334 1.74821,0.74776 0,0.14955 -2.726225,0.67512 -5.396056,1.04024 -3.916778,0.53566 -12.043124,0.48739 -12.605433,-0.0749 -0.256749,-0.25674 0.6892,-0.94692 4.550111,-3.31969 z m -17.338476,10.21384 h 40.254909 40.25439 v 12.09486 12.09539 H 104.36535 64.236014 l -0.125055,-5.98413 c -0.06876,-3.29117 -0.125058,-8.73366 -0.125058,-12.09487 z"
         style="fill:#ffffff;stroke-width:0.11623774"
         id="path6998" />
      <path
         sodipodi:nodetypes="ccsssccccccccccccccssscsssccccscssccccccccccsscscccsccssccccccccccccscscsccccccssssscscccccssscccccccccccc"
         inkscape:connector-curvature="0"
         d="m 107.44991,107.63393 c -0.30695,0.004 -0.61903,0.0149 -0.94154,0.031 -5.79985,0.28954 -14.460007,3.65138 -20.453531,7.93957 -4.965933,3.55298 -8.701519,7.68567 -12.568743,13.90613 -0.995442,1.60117 -2.131965,3.2337 -2.525943,3.62768 -0.81966,0.81966 -3.086256,1.96268 -5.544365,2.79621 -0.928671,0.31491 -2.230403,0.857 -2.408121,1.04283 -0.295836,0.30935 -0.102992,1.30206 -0.05891,13.38574 l -0.132291,13.18007 9.986986,0.0507 c 5.492903,0.0278 24.223913,0.0711 41.624328,0.0961 l 31.63063,0.0455 c -0.14784,-5.20659 -0.23755,-10.90976 -0.23926,-15.4497 l -0.001,-11.19724 -36.23861,-0.0258 c -19.931155,-0.0141 -38.279616,-0.0777 -40.774258,-0.14159 l -4.724812,-0.12515 1.701225,-0.50169 c 3.341513,-1.12878 5.839317,-1.45969 11.150224,-1.47691 4.108236,-0.0133 9.59294,-0.32119 11.339359,-0.63614 8.907547,-1.60638 17.807352,-5.89979 23.264722,-11.2236 0.7383,-0.72022 2.3807,-2.55931 3.64939,-4.08658 4.3466,-5.23247 5.58817,-6.31107 8.96896,-7.79073 0.92209,-0.40357 1.66849,-0.819 1.6583,-0.92294 -0.0102,-0.10395 -0.93487,-0.24983 -2.05465,-0.32453 -4.02307,-0.26837 -5.92603,-0.52181 -8.77724,-1.1684 -3.48323,-0.78993 -5.38213,-1.06122 -7.53081,-1.03043 z m 0.20567,0.56741 c 0.22954,0.002 0.48527,0.0161 0.78704,0.0388 2.43888,0.18297 11.2866,2.11714 11.73468,2.56522 0.0868,0.0868 -0.50785,0.30277 -1.32188,0.48007 -5.09618,1.11 -12.12,3.53267 -19.687167,6.79028 -1.5943,0.68634 -3.10362,1.24799 -3.35432,1.24799 -0.58979,0 -0.59401,-0.49211 -0.0171,-1.89446 1.44147,-3.5035 5.943567,-7.52019 9.955457,-8.88162 0.76081,-0.25819 1.21465,-0.35325 1.90325,-0.34624 z m -5.40432,0.78652 c 0.022,5.3e-4 0.0365,0.005 0.0434,0.0114 0.0414,0.0414 -0.80366,0.75356 -1.87792,1.58285 -1.074237,0.82929 -2.342857,1.94159 -2.819457,2.47168 -1.10592,1.23005 -2.37579,3.66612 -2.70216,5.18418 -0.13955,0.64911 -0.31367,1.3274 -0.38706,1.50791 -0.19638,0.48308 -1.79882,1.42957 -6.174301,3.64629 -2.148282,1.08838 -3.997854,1.9787 -4.110344,1.9787 -0.334852,0 -0.233953,-1.55575 0.1788,-2.75798 1.376373,-4.00897 4.445181,-8.14737 6.995955,-9.43456 2.43215,-1.22733 10.171937,-4.20532 10.853087,-4.19044 z m 18.06298,2.71973 c 0.11717,-0.004 0.17932,0.0113 0.17932,0.0491 0,0.27846 -4.91703,5.07639 -5.80533,5.66477 -0.48768,0.32303 -1.30121,0.71038 -1.80816,0.86093 -1.1467,0.34053 -5.55911,0.49452 -8.35608,0.29146 -2.82601,-0.20517 -3.23056,-0.39098 -2.19004,-1.00563 2.09708,-1.23877 16.22275,-5.79486 17.98029,-5.86063 z m -33.119936,3.92482 c 0.03904,0.0391 -0.263041,0.56686 -0.671277,1.17254 -1.883405,2.79436 -2.941011,5.33264 -3.316595,7.96024 l -0.226859,1.58957 -5.00848,3.09697 c -2.754503,1.7032 -5.081148,3.09719 -5.170226,3.09852 -0.241302,0.003 -0.06654,-0.35423 1.217497,-2.49236 2.301351,-3.83214 5.891204,-8.38932 8.593274,-10.9089 1.343666,-1.2529 4.457116,-3.64212 4.582666,-3.51658 z m 12.429219,2.98742 1.599897,0.262 c 0.89596,0.1467 3.84464,0.31258 6.70243,0.37672 2.80648,0.063 5.27292,0.18133 5.4808,0.26303 0.33543,0.13182 0.19721,0.32587 -1.22834,1.72496 -2.01467,1.97727 -4.45485,4.06931 -5.19659,4.45503 -0.68124,0.35425 -4.27534,0.49002 -6.14277,0.23202 -2.855007,-0.39443 -6.129417,-1.32926 -8.564847,-2.44481 l -1.28881,-0.59014 4.31911,-2.13941 z m -9.53327,4.62866 1.70687,0.79271 c 2.55441,1.18683 3.90999,1.65727 5.95933,2.06654 1.59604,0.31875 5.628587,0.77515 6.847127,0.77515 0.73212,0 0.39781,0.31624 -1.35496,1.27951 -1.99194,1.09471 -4.930797,2.37129 -7.418147,3.22306 -0.93549,0.32035 -2.04092,0.62802 -2.4567,0.68368 -0.84931,0.11369 -2.73963,-0.33854 -4.754751,-1.1374 -1.546681,-0.61316 -5.10825,-2.38391 -5.639449,-2.80397 -0.373745,-0.29554 -0.372578,-0.30409 0.139526,-0.76119 0.284845,-0.25425 1.96986,-1.28497 3.744476,-2.2903 z m -8.81652,4.97954 2.081012,1.1038 c 1.144735,0.60697 3.314747,1.59153 4.821928,2.18798 2.91291,1.15277 2.94959,1.17007 2.80293,1.31672 -0.24839,0.24839 -5.897981,1.0422 -8.66924,1.21801 -1.710788,0.10854 -3.53585,0.18537 -4.055565,0.17105 -1.737969,-0.0479 -4.856972,-0.32495 -4.973857,-0.44183 -0.277517,-0.27751 0.497599,-0.86635 4.129981,-3.13883 z m -17.287832,10.18335 h 40.254909 40.25439 v 12.09486 12.09539 H 104.36586 64.236533 Z"
         style="fill:#008080;stroke-width:0.11623774"
         id="path7000" />
      <path
         inkscape:connector-curvature="0"
         d="m 67.954651,144.45907 v 1.22835 1.22835 h 1.795756 1.79524 v 5.66942 5.66993 h 1.322917 1.322916 v -5.66993 -5.66942 h 1.984375 1.984375 v -1.22835 -1.22835 h -5.102532 z"
         style="fill:#008080;stroke-width:0.11623774"
         id="path7002" />
      <path
         sodipodi:nodetypes="ccccscsccccccccscccccsccccscc"
         inkscape:connector-curvature="0"
         id="path7004"
         d="m 80.283983,151.40414 0.0496,-6.85082 3.266485,0.0331 c 3.157357,0.032 3.294824,0.0497 4.114723,0.53016 0.466529,0.27341 1.055148,0.9061 1.338673,1.33452 0.432649,0.65378 0.447639,0.9201 0.534169,1.96271 -0.25821,1.44882 -0.35096,2.23416 -1.555051,3.36796 l -0.911045,0.77775 0.366347,0.82864 c 0.169339,0.44198 0.735007,1.52647 1.257045,2.40999 0.522044,0.88352 0.926064,1.73095 0.897824,1.88318 -0.0744,0.40113 -1.157051,0.66207 -1.891389,0.45588 -0.544819,-0.15298 -0.735748,-0.41458 -1.690015,-2.31555 -0.591691,-1.17869 -1.221447,-2.30401 -1.399453,-2.5007 -0.395229,-0.43673 -1.314162,-0.47333 -1.473274,-0.0587 -0.06309,0.16441 -0.114713,1.35504 -0.114713,2.64583 v 2.3469 h -1.419767 -1.41977 z m 6.009375,-1.56259 c 0.681585,-0.35247 0.910185,-1.10789 0.5383,-1.77886 -0.394647,-0.71204 -1.406369,-1.14639 -2.671064,-1.14673 l -1.086681,-2.6e-4 v 1.6064 1.6064 h 1.332302 c 0.821729,0 1.544931,-0.10996 1.887143,-0.28692 z"
         style="fill:#008080;stroke-width:0.11623774" />
      <path
         inkscape:connector-curvature="0"
         d="m 96.965283,144.64769 c -0.21945,0 -3.00264,6.36529 -3.96668,9.07179 -0.24066,0.67564 -0.858636,2.13926 -1.073319,2.59881 -0.698048,1.61289 -0.658451,1.66404 -0.299721,1.81746 0.12993,0.0556 0.6616,0.0554 1.18132,0 0.76256,-0.0813 1.04273,-0.21653 1.45107,-0.6997 l 0.50592,-0.59841 h 2.2965 c 2.41403,0 2.34145,-0.0234 2.92798,0.93844 0.217477,0.35665 2.114397,0.60266 2.518187,0.3266 0.19874,-0.13587 0.0569,-0.65471 -0.68781,-2.51354 -2.025407,-5.05586 -4.636127,-10.94145 -4.853447,-10.94145 z m 0.19121,6.13089 c 0.034,-0.002 0.0644,0.0102 0.091,0.0382 0.28291,0.29884 1.10543,3.18392 0.95291,3.34243 -0.18673,0.19413 -1.46563,0.31438 -2.03915,0.19172 -0.5214,-0.11151 -0.52567,-0.28025 -0.0444,-1.67897 0.39568,-1.15007 0.80207,-1.87921 1.03973,-1.89342 z"
         style="fill:#008080;stroke-width:0.11623774"
         id="path7006"
         sodipodi:nodetypes="sccccccscccsccccccc" />
      <path
         inkscape:connector-curvature="0"
         id="path7008"
         d="m 109.9278,158.04316 c -2.43481,-0.3579 -4.11518,-1.64524 -5.09471,-3.73427 -0.43618,-0.93024 -0.49719,-1.29678 -0.49135,-2.952 0.005,-1.50645 0.093,-2.10662 0.43191,-2.95815 0.64524,-1.62091 1.54027,-2.65799 2.777,-3.31691 0.71134,-0.41195 1.40999,-0.5924 3.146,-0.65204 2.28229,-0.13431 2.87875,0.10423 2.87875,1.17377 0,1.34648 -0.27378,1.52013 -1.73506,1.38585 -2.32794,-0.21392 -3.76825,0.54744 -4.57256,2.4171 -0.55015,1.27886 -0.45743,2.55566 0.29397,4.04789 0.83177,1.65186 1.21207,1.85221 3.67574,1.93654 1.2829,0.0439 2.13316,0.15562 2.24926,0.29551 0.10266,0.1237 0.24375,0.58194 0.31353,1.01831 0.12277,0.7678 0.11373,0.83656 -0.50397,1.08879 -0.83462,0.36536 -2.19223,0.44714 -3.36851,0.24961 z"
         style="fill:#008080;stroke-width:0.11623774"
         sodipodi:nodetypes="ccccccssccccccc" />
      <path
         inkscape:connector-curvature="0"
         id="path7010"
         d="m 119.86078,157.77554 c -1.49814,-0.76479 -3.21731,-2.98984 -3.7488,-4.81288 -0.55556,-1.9056 0.32402,-5.05485 1.81548,-6.64935 1.22147,-1.30585 2.59407,-1.95522 4.51421,-2.056 3.64644,-0.19139 6.35008,1.58373 7.36644,4.87432 0.8236,2.66651 0.34982,4.96649 -1.4671,6.87229 -1.62637,1.70594 -2.17893,2.01833 -5.20162,2.09427 -2.11491,0.0531 -2.96499,-0.0217 -3.27861,-0.32265 z m 5.37621,-2.69239 c 1.18914,-0.62122 1.60076,-1.20027 1.99725,-2.79405 0.32053,-1.81966 0.0982,-2.81557 -0.88425,-4.0347 -1.09162,-1.16703 -1.81789,-1.33873 -2.94306,-1.33873 -1.89119,0 -3.3071,0.83329 -4.06055,2.38972 -1.03391,2.13576 -0.046,5.12025 1.99762,6.03513 1.01237,0.4532 2.75309,0.33812 3.89299,-0.25737 z"
         style="fill:#008080;stroke-width:0.11623774"
         sodipodi:nodetypes="csccsccccccsccc" />
      <path
         inkscape:connector-curvature="0"
         id="path7014"
         d="m 133.53373,151.35689 -0.0165,-6.98075 h 1.22842 l 1.24497,0.0827 v 5.48066 5.48065 h 2.26786 2.26785 v 1.41741 1.41742 h -3.49628 -3.49628 z"
         style="fill:#008080;stroke-width:0.11623774"
         sodipodi:nodetypes="ccccccccccccc" />
      <path
         inkscape:connector-curvature="0"
         id="path7016"
         d="m 97.969473,186.69609 c -3.75108,-0.70848 -9.51013,-3.08692 -12.911185,-5.3322 -1.592606,-1.0514 -4.827339,-3.91615 -6.35432,-5.62754 -1.77069,-1.98452 -5.079458,-6.92228 -5.079458,-7.5802 0,-0.24849 0.04439,-0.45179 0.127247,-0.45179 0.252703,0 1.498361,1.3665 2.05188,2.26786 0.808442,1.31648 3.925279,5.10656 5.516771,6.70841 2.357816,2.37316 5.222216,4.46116 8.141885,5.935 1.46844,0.74127 5.75232,2.17867 7.88022,2.6441 8.652637,1.89261 18.012967,0.13273 25.163427,-4.73109 3.39301,-2.30796 8.53412,-7.58656 10.72567,-11.0125 0.75982,-1.1878 1.43605,-1.6891 1.43605,-1.06457 0,0.40146 -2.25138,3.83526 -3.78634,5.77491 -2.17694,2.7509 -6.92398,6.91055 -9.77608,8.56641 -2.58154,1.49878 -7.15474,3.19998 -10.06109,3.74267 -2.58984,0.78197 -11.376096,0.81941 -13.074677,0.16053 z"
         style="fill:#008080;stroke-width:0.11623774"
         sodipodi:nodetypes="cccssssccscscscc" />
    </g>
    <path
       style="fill:none;stroke-width:0.18708867"
       d="m 52.385959,131.15426 c -0.06818,-4.18426 -0.123971,-9.57242 -0.123971,-11.97367 v -4.36593 h 40.224064 40.224068 v 11.97368 11.97367 H 92.610023 52.509929 Z m 9.978815,-2.30162 v -5.60633 l 2.011204,-0.0531 2.011204,-0.0531 v -1.21608 -1.21608 l -5.098166,-0.0498 -5.098167,-0.0498 v 1.31262 1.31263 h 1.777344 1.777341 v 5.61266 5.61266 h 1.309622 1.309618 z m 8.980258,3.30348 c 0,-1.71451 0.069,-2.39563 0.27007,-2.66601 0.503751,-0.67739 1.185953,-0.0336 2.496685,2.35614 0.647079,1.17975 1.315641,2.25024 1.485697,2.37886 0.404291,0.30579 1.572646,0.29984 1.996617,-0.0102 0.311229,-0.22758 0.247716,-0.41666 -0.941348,-2.80252 l -1.275088,-2.55847 0.813652,-0.78183 c 1.041773,-1.00103 1.575562,-2.19675 1.575335,-3.52885 -1.93e-4,-1.14099 -0.317799,-1.89442 -1.119661,-2.65608 -0.993381,-0.94359 -1.645936,-1.08569 -4.985671,-1.08569 h -3.063325 l -0.123192,3.67832 c -0.06776,2.02307 -0.12319,5.096 -0.12319,6.82873 v 3.15042 h 1.49671 1.496709 z m 11.013596,1.64804 0.724797,-0.65481 h 2.096463 2.096463 l 0.593645,0.59931 c 0.515708,0.52062 0.747168,0.60945 1.762953,0.6766 1.11596,0.0738 1.169303,0.0578 1.169303,-0.35048 0,-0.81927 -4.976239,-12.63564 -5.506633,-13.07583 -0.352232,-0.29233 -1.275879,1.75871 -5.487945,12.1864 -0.410864,1.01717 -0.232582,1.27362 0.88538,1.27362 0.81239,0 1.039689,-0.0894 1.665574,-0.65481 z m 19.185462,0.21463 c 0.37801,-0.24768 0.48287,-0.46892 0.48063,-1.01407 -0.005,-1.14989 -0.12218,-1.21542 -2.601825,-1.45155 -2.615546,-0.24908 -2.781744,-0.34394 -3.595462,-2.05205 -1.05174,-2.20775 -0.507614,-4.59704 1.286338,-5.64836 0.6561,-0.3845 1.157536,-0.4981 2.622184,-0.59403 l 1.810975,-0.11862 0.17023,-0.59543 c 0.24343,-0.85147 0.0185,-1.53316 -0.58348,-1.76807 -0.29265,-0.11421 -1.269825,-0.16403 -2.297374,-0.11713 -2.954166,0.13484 -4.514974,1.10053 -5.672436,3.50962 -0.554289,1.15366 -0.584275,1.3313 -0.584275,3.46113 0,1.98246 0.05019,2.33906 0.429051,3.04863 1.336421,2.50293 3.726032,3.846 6.617769,3.71948 0.943085,-0.0413 1.599735,-0.17123 1.917675,-0.37955 z m 27.23717,-0.96298 v -1.40317 h -2.24506 -2.24507 v -5.51911 -5.51912 h -1.30962 -1.30962 v 6.92228 6.92228 h 3.55469 3.55468 z m -14.03622,0.76598 c 0.91845,-0.49651 2.50087,-2.17123 2.97288,-3.14628 1.58526,-3.2747 0.21928,-7.66004 -2.91435,-9.35618 -1.77447,-0.96047 -4.22085,-1.11467 -6.32143,-0.39847 -0.66283,0.226 -1.26495,0.65036 -2.06613,1.45619 -1.43776,1.44608 -1.97099,2.71922 -2.09796,5.00915 -0.0841,1.51746 -0.052,1.70841 0.47747,2.83993 0.60813,1.29955 1.72839,2.64501 2.93827,3.52895 l 0.74835,0.54674 2.80633,-0.0643 c 2.30701,-0.0528 2.92203,-0.12681 3.45657,-0.41578 z"
       id="path56"
       inkscape:connector-curvature="0" />
    <path
       style="fill:none;stroke-width:0.18708867"
       d="m 52.385959,131.15426 c -0.06818,-4.18426 -0.123971,-9.57242 -0.123971,-11.97367 v -4.36593 h 40.224064 40.224068 v 11.97368 11.97367 H 92.610023 52.509929 Z m 9.978815,-2.30162 v -5.60633 l 2.011204,-0.0531 2.011204,-0.0531 v -1.21608 -1.21608 l -5.098166,-0.0498 -5.098167,-0.0498 v 1.31262 1.31263 h 1.777344 1.777341 v 5.61266 5.61266 h 1.309622 1.309618 z m 8.980258,3.30348 c 0,-1.71451 0.069,-2.39563 0.27007,-2.66601 0.503751,-0.67739 1.185953,-0.0336 2.496685,2.35614 0.647079,1.17975 1.315641,2.25024 1.485697,2.37886 0.404291,0.30579 1.572646,0.29984 1.996617,-0.0102 0.311229,-0.22758 0.247716,-0.41666 -0.941348,-2.80252 l -1.275088,-2.55847 0.813652,-0.78183 c 1.041773,-1.00103 1.575562,-2.19675 1.575335,-3.52885 -1.93e-4,-1.14099 -0.317799,-1.89442 -1.119661,-2.65608 -0.993381,-0.94359 -1.645936,-1.08569 -4.985671,-1.08569 h -3.063325 l -0.123192,3.67832 c -0.06776,2.02307 -0.12319,5.096 -0.12319,6.82873 v 3.15042 h 1.49671 1.496709 z m 11.013596,1.64804 0.724797,-0.65481 h 2.096463 2.096463 l 0.593645,0.59931 c 0.515708,0.52062 0.747168,0.60945 1.762953,0.6766 1.11596,0.0738 1.169303,0.0578 1.169303,-0.35048 0,-0.81927 -4.976239,-12.63564 -5.506633,-13.07583 -0.352232,-0.29233 -1.275879,1.75871 -5.487945,12.1864 -0.410864,1.01717 -0.232582,1.27362 0.88538,1.27362 0.81239,0 1.039689,-0.0894 1.665574,-0.65481 z m 19.185462,0.21463 c 0.37801,-0.24768 0.48287,-0.46892 0.48063,-1.01407 -0.005,-1.14989 -0.12218,-1.21542 -2.601825,-1.45155 -2.615546,-0.24908 -2.781744,-0.34394 -3.595462,-2.05205 -1.05174,-2.20775 -0.507614,-4.59704 1.286338,-5.64836 0.6561,-0.3845 1.157536,-0.4981 2.622184,-0.59403 l 1.810975,-0.11862 0.17023,-0.59543 c 0.24343,-0.85147 0.0185,-1.53316 -0.58348,-1.76807 -0.29265,-0.11421 -1.269825,-0.16403 -2.297374,-0.11713 -2.954166,0.13484 -4.514974,1.10053 -5.672436,3.50962 -0.554289,1.15366 -0.584275,1.3313 -0.584275,3.46113 0,1.98246 0.05019,2.33906 0.429051,3.04863 1.336421,2.50293 3.726032,3.846 6.617769,3.71948 0.943085,-0.0413 1.599735,-0.17123 1.917675,-0.37955 z m 27.23717,-0.96298 v -1.40317 h -2.24506 -2.24507 v -5.51911 -5.51912 h -1.30962 -1.30962 v 6.92228 6.92228 h 3.55469 3.55468 z m -14.03622,0.76598 c 0.91845,-0.49651 2.50087,-2.17123 2.97288,-3.14628 1.58526,-3.2747 0.21928,-7.66004 -2.91435,-9.35618 -1.77447,-0.96047 -4.22085,-1.11467 -6.32143,-0.39847 -0.66283,0.226 -1.26495,0.65036 -2.06613,1.45619 -1.43776,1.44608 -1.97099,2.71922 -2.09796,5.00915 -0.0841,1.51746 -0.052,1.70841 0.47747,2.83993 0.60813,1.29955 1.72839,2.64501 2.93827,3.52895 l 0.74835,0.54674 2.80633,-0.0643 c 2.30701,-0.0528 2.92203,-0.12681 3.45657,-0.41578 z"
       id="path58"
       inkscape:connector-curvature="0" />
    <path
       style="fill:none;stroke-width:0.18708867"
       d="m 52.385959,131.15426 c -0.06818,-4.18426 -0.123971,-9.57242 -0.123971,-11.97367 v -4.36593 h 40.224064 40.224068 v 11.97368 11.97367 H 92.610023 52.509929 Z m 9.978815,-2.30162 v -5.60633 l 2.011204,-0.0531 2.011204,-0.0531 v -1.21608 -1.21608 l -5.098166,-0.0498 -5.098167,-0.0498 v 1.31262 1.31263 h 1.777344 1.777341 v 5.61266 5.61266 h 1.309622 1.309618 z m 8.980258,3.30348 c 0,-1.71451 0.069,-2.39563 0.27007,-2.66601 0.503751,-0.67739 1.185953,-0.0336 2.496685,2.35614 0.647079,1.17975 1.315641,2.25024 1.485697,2.37886 0.404291,0.30579 1.572646,0.29984 1.996617,-0.0102 0.311229,-0.22758 0.247716,-0.41666 -0.941348,-2.80252 l -1.275088,-2.55847 0.813652,-0.78183 c 1.041773,-1.00103 1.575562,-2.19675 1.575335,-3.52885 -1.93e-4,-1.14099 -0.317799,-1.89442 -1.119661,-2.65608 -0.993381,-0.94359 -1.645936,-1.08569 -4.985671,-1.08569 h -3.063325 l -0.123192,3.67832 c -0.06776,2.02307 -0.12319,5.096 -0.12319,6.82873 v 3.15042 h 1.49671 1.496709 z m 11.013596,1.64804 0.724797,-0.65481 h 2.096463 2.096463 l 0.593645,0.59931 c 0.515708,0.52062 0.747168,0.60945 1.762953,0.6766 1.11596,0.0738 1.169303,0.0578 1.169303,-0.35048 0,-0.81927 -4.976239,-12.63564 -5.506633,-13.07583 -0.352232,-0.29233 -1.275879,1.75871 -5.487945,12.1864 -0.410864,1.01717 -0.232582,1.27362 0.88538,1.27362 0.81239,0 1.039689,-0.0894 1.665574,-0.65481 z m 19.185462,0.21463 c 0.37801,-0.24768 0.48287,-0.46892 0.48063,-1.01407 -0.005,-1.14989 -0.12218,-1.21542 -2.601825,-1.45155 -2.615546,-0.24908 -2.781744,-0.34394 -3.595462,-2.05205 -1.05174,-2.20775 -0.507614,-4.59704 1.286338,-5.64836 0.6561,-0.3845 1.157536,-0.4981 2.622184,-0.59403 l 1.810975,-0.11862 0.17023,-0.59543 c 0.24343,-0.85147 0.0185,-1.53316 -0.58348,-1.76807 -0.29265,-0.11421 -1.269825,-0.16403 -2.297374,-0.11713 -2.954166,0.13484 -4.514974,1.10053 -5.672436,3.50962 -0.554289,1.15366 -0.584275,1.3313 -0.584275,3.46113 0,1.98246 0.05019,2.33906 0.429051,3.04863 1.336421,2.50293 3.726032,3.846 6.617769,3.71948 0.943085,-0.0413 1.599735,-0.17123 1.917675,-0.37955 z m 27.23717,-0.96298 v -1.40317 h -2.24506 -2.24507 v -5.51911 -5.51912 h -1.30962 -1.30962 v 6.92228 6.92228 h 3.55469 3.55468 z m -14.03622,0.76598 c 0.91845,-0.49651 2.50087,-2.17123 2.97288,-3.14628 1.58526,-3.2747 0.21928,-7.66004 -2.91435,-9.35618 -1.77447,-0.96047 -4.22085,-1.11467 -6.32143,-0.39847 -0.66283,0.226 -1.26495,0.65036 -2.06613,1.45619 -1.43776,1.44608 -1.97099,2.71922 -2.09796,5.00915 -0.0841,1.51746 -0.052,1.70841 0.47747,2.83993 0.60813,1.29955 1.72839,2.64501 2.93827,3.52895 l 0.74835,0.54674 2.80633,-0.0643 c 2.30701,-0.0528 2.92203,-0.12681 3.45657,-0.41578 z"
       id="path60"
       inkscape:connector-curvature="0" />
    <path
       style="fill:none;stroke-width:0.18708867"
       d="m 52.385959,131.15426 c -0.06818,-4.18426 -0.123971,-9.57242 -0.123971,-11.97367 v -4.36593 h 40.224064 40.224068 v 11.97368 11.97367 H 92.610023 52.509929 Z m 9.978815,-2.30162 v -5.60633 l 2.011204,-0.0531 2.011204,-0.0531 v -1.21608 -1.21608 l -5.098166,-0.0498 -5.098167,-0.0498 v 1.31262 1.31263 h 1.777344 1.777341 v 5.61266 5.61266 h 1.309622 1.309618 z m 8.980258,3.30348 c 0,-1.71451 0.069,-2.39563 0.27007,-2.66601 0.503751,-0.67739 1.185953,-0.0336 2.496685,2.35614 0.647079,1.17975 1.315641,2.25024 1.485697,2.37886 0.404291,0.30579 1.572646,0.29984 1.996617,-0.0102 0.311229,-0.22758 0.247716,-0.41666 -0.941348,-2.80252 l -1.275088,-2.55847 0.813652,-0.78183 c 1.041773,-1.00103 1.575562,-2.19675 1.575335,-3.52885 -1.93e-4,-1.14099 -0.317799,-1.89442 -1.119661,-2.65608 -0.993381,-0.94359 -1.645936,-1.08569 -4.985671,-1.08569 h -3.063325 l -0.123192,3.67832 c -0.06776,2.02307 -0.12319,5.096 -0.12319,6.82873 v 3.15042 h 1.49671 1.496709 z m 11.013596,1.64804 0.724797,-0.65481 h 2.096463 2.096463 l 0.593645,0.59931 c 0.515708,0.52062 0.747168,0.60945 1.762953,0.6766 1.11596,0.0738 1.169303,0.0578 1.169303,-0.35048 0,-0.81927 -4.976239,-12.63564 -5.506633,-13.07583 -0.352232,-0.29233 -1.275879,1.75871 -5.487945,12.1864 -0.410864,1.01717 -0.232582,1.27362 0.88538,1.27362 0.81239,0 1.039689,-0.0894 1.665574,-0.65481 z m 19.185462,0.21463 c 0.37801,-0.24768 0.48287,-0.46892 0.48063,-1.01407 -0.005,-1.14989 -0.12218,-1.21542 -2.601825,-1.45155 -2.615546,-0.24908 -2.781744,-0.34394 -3.595462,-2.05205 -1.05174,-2.20775 -0.507614,-4.59704 1.286338,-5.64836 0.6561,-0.3845 1.157536,-0.4981 2.622184,-0.59403 l 1.810975,-0.11862 0.17023,-0.59543 c 0.24343,-0.85147 0.0185,-1.53316 -0.58348,-1.76807 -0.29265,-0.11421 -1.269825,-0.16403 -2.297374,-0.11713 -2.954166,0.13484 -4.514974,1.10053 -5.672436,3.50962 -0.554289,1.15366 -0.584275,1.3313 -0.584275,3.46113 0,1.98246 0.05019,2.33906 0.429051,3.04863 1.336421,2.50293 3.726032,3.846 6.617769,3.71948 0.943085,-0.0413 1.599735,-0.17123 1.917675,-0.37955 z m 27.23717,-0.96298 v -1.40317 h -2.24506 -2.24507 v -5.51911 -5.51912 h -1.30962 -1.30962 v 6.92228 6.92228 h 3.55469 3.55468 z m -14.03622,0.76598 c 0.91845,-0.49651 2.50087,-2.17123 2.97288,-3.14628 1.58526,-3.2747 0.21928,-7.66004 -2.91435,-9.35618 -1.77447,-0.96047 -4.22085,-1.11467 -6.32143,-0.39847 -0.66283,0.226 -1.26495,0.65036 -2.06613,1.45619 -1.43776,1.44608 -1.97099,2.71922 -2.09796,5.00915 -0.0841,1.51746 -0.052,1.70841 0.47747,2.83993 0.60813,1.29955 1.72839,2.64501 2.93827,3.52895 l 0.74835,0.54674 2.80633,-0.0643 c 2.30701,-0.0528 2.92203,-0.12681 3.45657,-0.41578 z"
       id="path62"
       inkscape:connector-curvature="0" />
    <path
       style="fill:none;stroke-width:0.18708867"
       d="m 89.024387,102.09845 c -2.726166,-0.38865 -6.411773,-1.45468 -8.708959,-2.51898 l -1.005507,-0.465858 4.296228,-2.080418 4.29623,-2.080422 1.378394,0.204468 c 0.758116,0.112456 3.788952,0.297047 6.735191,0.410202 2.946239,0.113157 5.423096,0.266888 5.504126,0.341627 0.28974,0.267256 -5.16134,5.333201 -6.350917,5.902211 -0.718696,0.34378 -4.506145,0.52077 -6.144786,0.28717 z"
       id="path64"
       inkscape:connector-curvature="0" />
    <path
       style="fill:none;stroke-width:0.18708867"
       d="m 91.83124,94.671959 c -1.592061,-0.193288 -1.810213,-0.265567 -1.59268,-0.527679 0.341238,-0.411165 3.144136,-1.51216 7.860151,-3.087516 4.998109,-1.669581 9.769339,-3.051826 10.226209,-2.962571 0.43352,0.08469 -4.85222,5.157314 -6.05758,5.813353 -0.5392,0.293468 -1.47907,0.587092 -2.22386,0.694749 -1.20211,0.173762 -6.953006,0.222549 -8.21224,0.06966 z"
       id="path66"
       inkscape:connector-curvature="0" />
    <path
       style="fill:none;stroke-width:0.18708867"
       d="m 83.755143,95.249828 c -0.06764,-0.176273 0.02016,-0.708266 0.195086,-1.182206 1.197932,-3.245411 5.396317,-7.276555 9.272487,-8.903121 1.697349,-0.712263 2.705052,-0.764447 5.530804,-0.286406 4.43775,0.750745 9.59956,1.995443 9.321,2.247625 -0.0845,0.0765 -0.78507,0.286893 -1.55681,0.467537 -4.76314,1.114925 -10.295673,3.004415 -17.733197,6.056307 -4.97064,2.039636 -4.87272,2.008482 -5.02937,1.600264 z"
       id="path68"
       inkscape:connector-curvature="0" />
    <path
       style="fill:none;stroke-width:0.18708867"
       d="m 72.391131,101.39256 c -0.37559,-0.37558 0.23182,-2.654124 1.288928,-4.835074 1.546082,-3.189764 4.051747,-6.066589 6.250715,-7.176624 2.244722,-1.133131 9.631156,-4.009573 9.989489,-3.890129 0.102878,0.03429 -0.576654,0.671375 -1.510072,1.41574 -3.106341,2.477183 -4.418465,4.325564 -5.341816,7.524996 -0.372475,1.290638 -0.571645,1.673111 -1.085154,2.083861 -1.254255,1.003266 -9.349777,5.11955 -9.59209,4.87723 z"
       id="path70"
       inkscape:connector-curvature="0" />
    <path
       style="fill:none;stroke-width:0.18708867"
       d="m 61.055156,108.53025 c 0,-0.23901 2.310209,-3.95283 3.422668,-5.50218 1.773288,-2.4697 3.995076,-5.165593 5.546521,-6.730079 1.350201,-1.361551 4.850416,-4.208383 4.995667,-4.063132 0.038,0.038 -0.384498,0.821523 -0.938898,1.741148 -1.635201,2.712435 -2.497682,5.048025 -2.828504,7.659573 l -0.119851,0.94613 -4.412252,2.7021 c -4.738214,2.90173 -5.665351,3.43301 -5.665351,3.24644 z"
       id="path72"
       inkscape:connector-curvature="0" />
    <path
       style="fill:none;stroke-width:0.18708867"
       d="m 61.055156,108.53025 c 0,-0.23901 2.310209,-3.95283 3.422668,-5.50218 1.773288,-2.4697 3.995076,-5.165593 5.546521,-6.730079 1.350201,-1.361551 4.850416,-4.208383 4.995667,-4.063132 0.038,0.038 -0.384498,0.821523 -0.938898,1.741148 -1.635201,2.712435 -2.497682,5.048025 -2.828504,7.659573 l -0.119851,0.94613 -4.412252,2.7021 c -4.738214,2.90173 -5.665351,3.43301 -5.665351,3.24644 z"
       id="path74"
       inkscape:connector-curvature="0" />
    <path
       style="fill:none;stroke-width:0.18708867"
       d="m 61.055156,108.53025 c 0,-0.23901 2.310209,-3.95283 3.422668,-5.50218 1.773288,-2.4697 3.995076,-5.165593 5.546521,-6.730079 1.350201,-1.361551 4.850416,-4.208383 4.995667,-4.063132 0.038,0.038 -0.384498,0.821523 -0.938898,1.741148 -1.635201,2.712435 -2.497682,5.048025 -2.828504,7.659573 l -0.119851,0.94613 -4.412252,2.7021 c -4.738214,2.90173 -5.665351,3.43301 -5.665351,3.24644 z"
       id="path76"
       inkscape:connector-curvature="0" />
    <path
       style="fill:none;stroke-width:0.18708867"
       d="m 62.797204,110.16677 c -1.806366,-0.24395 -1.854451,-0.1922 3.143113,-3.38254 l 3.481998,-2.22283 2.31775,1.1608 c 1.274765,0.63843 3.433268,1.61614 4.796676,2.17267 1.363409,0.55653 2.478927,1.06807 2.478927,1.13676 0,0.12793 -1.331693,0.35422 -4.95785,0.84246 -2.26889,0.30549 -9.729843,0.49942 -11.260614,0.29268 z"
       id="path78"
       inkscape:connector-curvature="0" />
    <path
       style="fill:none;stroke-width:0.18708867"
       d="m 79.285934,107.89977 c -0.725995,-0.1904 -1.862558,-0.57454 -2.525699,-0.85363 -1.723692,-0.72545 -5.552395,-2.66345 -5.684634,-2.87741 -0.06146,-0.0994 0.163439,-0.38759 0.499788,-0.6403 0.796874,-0.59872 6.47175,-3.867958 6.714156,-3.867958 0.102534,0 1.212898,0.451028 2.467478,1.002278 3.302995,1.45131 6.040567,2.07802 10.778249,2.46746 l 1.574919,0.12946 -0.452387,0.34304 c -1.345994,1.02065 -7.581252,3.73379 -10.052693,4.3742 -1.389102,0.35995 -1.678146,0.35324 -3.319177,-0.0771 z"
       id="path80"
       inkscape:connector-curvature="0" />
    <path
       style="fill:none;stroke-width:0.18708867"
       d="m 79.285934,107.89977 c -0.725995,-0.1904 -1.862558,-0.57454 -2.525699,-0.85363 -1.723692,-0.72545 -5.552395,-2.66345 -5.684634,-2.87741 -0.06146,-0.0994 0.163439,-0.38759 0.499788,-0.6403 0.796874,-0.59872 6.47175,-3.867958 6.714156,-3.867958 0.102534,0 1.212898,0.451028 2.467478,1.002278 3.302995,1.45131 6.040567,2.07802 10.778249,2.46746 l 1.574919,0.12946 -0.452387,0.34304 c -1.345994,1.02065 -7.581252,3.73379 -10.052693,4.3742 -1.389102,0.35995 -1.678146,0.35324 -3.319177,-0.0771 z"
       id="path82"
       inkscape:connector-curvature="0" />
    <path
       style="fill:none;stroke-width:0.18708867"
       d="m 52.385959,131.15426 c -0.06818,-4.18426 -0.123971,-9.57242 -0.123971,-11.97367 v -4.36593 h 40.224064 40.224068 v 11.97368 11.97367 H 92.610023 52.509929 Z m 9.978815,-2.30162 v -5.60633 l 2.011204,-0.0531 2.011204,-0.0531 v -1.21608 -1.21608 l -5.098166,-0.0498 -5.098167,-0.0498 v 1.31262 1.31263 h 1.777344 1.777341 v 5.61266 5.61266 h 1.309622 1.309618 z m 8.980258,3.30348 c 0,-1.71451 0.069,-2.39563 0.27007,-2.66601 0.503751,-0.67739 1.185953,-0.0336 2.496685,2.35614 0.647079,1.17975 1.315641,2.25024 1.485697,2.37886 0.404291,0.30579 1.572646,0.29984 1.996617,-0.0102 0.311229,-0.22758 0.247716,-0.41666 -0.941348,-2.80252 l -1.275088,-2.55847 0.813652,-0.78183 c 1.041773,-1.00103 1.575562,-2.19675 1.575335,-3.52885 -1.93e-4,-1.14099 -0.317799,-1.89442 -1.119661,-2.65608 -0.993381,-0.94359 -1.645936,-1.08569 -4.985671,-1.08569 h -3.063325 l -0.123192,3.67832 c -0.06776,2.02307 -0.12319,5.096 -0.12319,6.82873 v 3.15042 h 1.49671 1.496709 z m 11.013596,1.64804 0.724797,-0.65481 h 2.096463 2.096463 l 0.593645,0.59931 c 0.515708,0.52062 0.747168,0.60945 1.762953,0.6766 1.11596,0.0738 1.169303,0.0578 1.169303,-0.35048 0,-0.81927 -4.976239,-12.63564 -5.506633,-13.07583 -0.352232,-0.29233 -1.275879,1.75871 -5.487945,12.1864 -0.410864,1.01717 -0.232582,1.27362 0.88538,1.27362 0.81239,0 1.039689,-0.0894 1.665574,-0.65481 z m 19.185462,0.21463 c 0.37801,-0.24768 0.48287,-0.46892 0.48063,-1.01407 -0.005,-1.14989 -0.12218,-1.21542 -2.601825,-1.45155 -2.615546,-0.24908 -2.781744,-0.34394 -3.595462,-2.05205 -1.05174,-2.20775 -0.507614,-4.59704 1.286338,-5.64836 0.6561,-0.3845 1.157536,-0.4981 2.622184,-0.59403 l 1.810975,-0.11862 0.17023,-0.59543 c 0.24343,-0.85147 0.0185,-1.53316 -0.58348,-1.76807 -0.29265,-0.11421 -1.269825,-0.16403 -2.297374,-0.11713 -2.954166,0.13484 -4.514974,1.10053 -5.672436,3.50962 -0.554289,1.15366 -0.584275,1.3313 -0.584275,3.46113 0,1.98246 0.05019,2.33906 0.429051,3.04863 1.336421,2.50293 3.726032,3.846 6.617769,3.71948 0.943085,-0.0413 1.599735,-0.17123 1.917675,-0.37955 z m 27.23717,-0.96298 v -1.40317 h -2.24506 -2.24507 v -5.51911 -5.51912 h -1.30962 -1.30962 v 6.92228 6.92228 h 3.55469 3.55468 z m -14.03622,0.76598 c 0.91845,-0.49651 2.50087,-2.17123 2.97288,-3.14628 1.58526,-3.2747 0.21928,-7.66004 -2.91435,-9.35618 -1.77447,-0.96047 -4.22085,-1.11467 -6.32143,-0.39847 -0.66283,0.226 -1.26495,0.65036 -2.06613,1.45619 -1.43776,1.44608 -1.97099,2.71922 -2.09796,5.00915 -0.0841,1.51746 -0.052,1.70841 0.47747,2.83993 0.60813,1.29955 1.72839,2.64501 2.93827,3.52895 l 0.74835,0.54674 2.80633,-0.0643 c 2.30701,-0.0528 2.92203,-0.12681 3.45657,-0.41578 z"
       id="path84"
       inkscape:connector-curvature="0" />
    <path
       style="fill:none;stroke-width:0.18708867"
       d="m 65.311423,139.74424 -14.171967,-0.0491 0.01463,-5.09699 c 0.008,-2.80334 0.07502,-8.70664 0.14882,-13.11844 0.156189,-9.33738 -0.165018,-8.2521 2.777151,-9.3833 2.288535,-0.87989 4.128725,-1.79198 4.864492,-2.41108 0.311425,-0.26205 1.313611,-1.62119 2.22708,-3.0203 4.089098,-6.26306 7.399938,-10.208368 11.011397,-13.12156 4.436613,-3.5788 10.506189,-6.703722 16.258418,-8.370655 3.167732,-0.917972 4.545923,-1.123013 7.505734,-1.116674 2.538273,0.0054 3.16374,0.07925 6.548112,0.772724 3.7976,0.77815 5.68979,1.051459 8.88671,1.283599 2.75278,0.199888 2.76149,0.235876 0.34593,1.429152 -2.82858,1.397312 -4.11941,2.522797 -7.75639,6.762859 -3.53205,4.117734 -4.559945,5.192257 -6.366123,6.654945 -3.904339,3.16182 -8.855553,5.77917 -14.370774,7.59678 -5.652871,1.86298 -6.98427,2.03318 -19.653803,2.51253 -3.086497,0.11678 -5.377135,0.29399 -6.267471,0.48489 -1.892753,0.40582 -4.928407,1.38844 -4.772189,1.54473 0.06932,0.0694 18.381252,0.16819 40.69317,0.21964 22.31193,0.0515 40.6082,0.13564 40.65839,0.18709 0.0502,0.0514 0.12035,6.00789 0.1559,13.23655 l 0.0646,13.143 -27.31495,-0.0456 c -15.023229,-0.0251 -33.69234,-0.0677 -41.486919,-0.0947 z m 67.398697,-12.9559 V 114.62757 H 92.369678 52.029242 l 0.126101,11.64627 c 0.06936,6.40545 0.170505,11.87779 0.224782,12.16077 l 0.09868,0.51449 H 92.594462 132.71012 Z M 71.157942,110.31916 c 2.185948,-0.19228 7.112056,-0.85927 7.727707,-1.04631 0.668938,-0.20324 0.155691,-0.53093 -2.599182,-1.65948 -1.540172,-0.63094 -3.701439,-1.61777 -4.80281,-2.19295 l -2.002496,-1.04577 -3.417877,2.14667 c -5.673857,3.56359 -5.662239,3.54479 -2.388888,3.86613 1.47955,0.14525 5.46994,0.10884 7.483546,-0.0683 z m -9.18378,-1.9908 c 0.472083,-0.2747 2.773656,-1.67133 5.114602,-3.10362 3.823317,-2.33926 4.256598,-2.6548 4.259517,-3.102 0.0054,-0.82665 0.51979,-3.032559 1.047202,-4.490776 0.273262,-0.755533 1.080318,-2.342597 1.793454,-3.526808 0.71314,-1.184212 1.250106,-2.199622 1.193263,-2.256465 -0.189463,-0.189463 -3.733757,2.636028 -5.452332,4.34657 -2.662084,2.649635 -5.802204,6.761099 -8.096155,10.600559 -1.31264,2.19702 -1.296887,2.36892 0.140449,1.53254 z m 21.482624,-0.45806 c 3.907412,-1.24802 9.777619,-4.03437 9.777619,-4.64104 0,-0.0811 -0.778756,-0.2048 -1.730568,-0.27483 -4.651426,-0.34222 -7.227785,-0.93074 -10.779051,-2.46228 l -2.421943,-1.044498 -0.746387,0.380777 c -1.519899,0.775401 -5.944595,3.426981 -6.349405,3.805001 -0.583207,0.54462 -0.393554,0.71569 2.279907,2.05654 2.634845,1.32148 4.18505,1.94276 5.996429,2.40322 1.772285,0.45051 1.884834,0.4442 3.973399,-0.22289 z m 11.209742,-5.71074 c 0.337085,-0.0582 1.219729,-0.6076 2.057974,-1.28099 1.896761,-1.523737 5.121588,-4.613845 5.118428,-4.904622 -0.004,-0.332174 -0.69448,-0.397196 -6.457045,-0.607682 -2.88119,-0.105244 -5.735793,-0.283274 -6.343565,-0.395626 l -1.105038,-0.204277 -4.365198,2.119648 c -2.400864,1.165807 -4.366133,2.171295 -4.367266,2.234417 -0.0062,0.345353 4.510691,2.011042 7.107306,2.620962 2.816318,0.66151 6.016972,0.82172 8.354404,0.41817 z M 76.221292,99.846183 c 2.058604,-1.029748 4.350348,-2.240897 5.092761,-2.691445 l 1.349843,-0.819179 0.484068,-1.658366 c 0.985282,-3.375475 2.142347,-5.031968 5.307156,-7.597894 1.223195,-0.991725 2.019355,-1.757185 1.864042,-1.792163 -0.570143,-0.128395 -8.169399,2.763803 -10.619208,4.04156 -3.115926,1.625188 -6.731071,6.802816 -7.444486,10.662023 -0.164015,0.887241 -0.09758,1.727731 0.136565,1.727731 0.04749,0 1.770655,-0.84252 3.829259,-1.872267 z m 12.433339,-5.982888 c 6.96054,-2.876764 13.122429,-4.989256 18.011349,-6.17487 1.036,-0.25124 1.71067,-0.505198 1.66958,-0.628459 -0.13136,-0.394086 -5.59857,-1.712979 -9.943206,-2.398668 -2.515667,-0.397033 -2.648284,-0.400298 -3.81643,-0.09392 -4.073636,1.068432 -9.096369,5.358066 -10.624756,9.074012 -0.693293,1.685584 -0.560348,2.196867 0.493969,1.899687 0.259392,-0.07312 2.153663,-0.828119 4.209494,-1.677786 z m 11.106944,0.928981 c 2.290935,-0.297384 3.021645,-0.753975 6.227145,-3.891084 1.57718,-1.543529 2.79946,-2.87514 2.71619,-2.959137 -0.23629,-0.238329 -3.86939,0.75415 -9.390125,2.565167 -7.356243,2.41314 -9.796768,3.45372 -9.289617,3.960871 0.442822,0.442822 7.111859,0.664874 9.736407,0.324183 z"
       id="path86"
       inkscape:connector-curvature="0" />
    <path
       style="fill:none;stroke-width:0.03307291"
       d="m 89.871844,136.65876 v -2.16154 l 0.292354,-0.0221 c 0.527564,-0.0398 0.633688,-0.10054 0.633688,-0.36251 0,-0.28064 -0.177948,-0.82633 -0.690967,-2.11887 l -0.235075,-0.59222 v -8.36223 -8.36223 h 21.414726 21.41471 v 12.07161 12.07162 H 111.28657 89.871844 Z m 38.877226,-3.57662 V 131.66 l -2.27377,-0.008 -2.27376,-0.008 v -5.47334 -5.47334 h -1.24023 -1.24024 v 6.89019 c 0,3.78961 0.01,6.90018 0.0222,6.91239 0.0122,0.0122 1.59351,0.0184 3.514,0.0138 l 3.4918,-0.008 z m -28.24428,1.21115 c 0.42266,-0.0797 0.91473,-0.23063 1.17357,-0.35989 0.14861,-0.0742 0.19639,-0.12029 0.26458,-0.25507 0.0728,-0.14397 0.083,-0.20582 0.0818,-0.49609 -0.002,-0.35908 -0.11122,-0.84865 -0.25591,-1.1419 -0.0638,-0.12938 -0.096,-0.15631 -0.24605,-0.2061 -0.24708,-0.082 -0.81341,-0.14859 -1.613335,-0.18974 -1.772799,-0.0912 -2.188525,-0.13591 -2.602403,-0.27985 -0.644011,-0.22396 -1.011687,-0.63821 -1.543772,-1.73934 -0.447336,-0.92574 -0.607586,-1.52833 -0.611081,-2.29786 -0.0024,-0.53746 0.05307,-0.87036 0.229756,-1.37798 0.444738,-1.2777 1.285697,-2.1623 2.394296,-2.51854 0.539375,-0.17332 0.810969,-0.20471 1.653644,-0.19109 1.746555,0.0282 1.719415,0.0291 1.883885,-0.063 0.16031,-0.0898 0.27711,-0.23824 0.33534,-0.42606 0.0572,-0.18453 0.0778,-1.14468 0.0296,-1.37805 -0.0338,-0.16366 -0.0665,-0.22264 -0.19389,-0.35023 -0.28097,-0.28136 -0.72419,-0.34558 -2.170665,-0.31448 -1.963328,0.0422 -2.494622,0.12916 -3.387797,0.55449 -0.627398,0.29876 -1.010618,0.56899 -1.491504,1.05176 -0.307887,0.3091 -0.484309,0.52122 -0.686138,0.82498 -0.584637,0.87991 -1.009584,1.937 -1.138558,2.83225 -0.06155,0.42725 -0.05996,3.01462 0.0021,3.3569 0.136369,0.75256 0.682252,1.88243 1.260372,2.60872 1.059132,1.33059 2.689018,2.18119 4.631269,2.41696 0.432472,0.0525 1.586281,0.0175 2.000921,-0.0607 z m 11.34402,-0.0376 c 2.39373,-0.0948 2.95185,-0.2967 4.19562,-1.51787 0.84638,-0.831 1.3083,-1.44092 1.69212,-2.23427 0.43847,-0.9063 0.61389,-1.6978 0.6123,-2.76263 -0.001,-0.65962 -0.0706,-1.21831 -0.23032,-1.84797 -0.64539,-2.54445 -2.13835,-4.25708 -4.34079,-4.97945 -0.90835,-0.29793 -1.66494,-0.39888 -2.78883,-0.37213 -1.32695,0.0316 -2.07785,0.19464 -3.00963,0.65357 -0.62308,0.30688 -0.99684,0.58113 -1.57389,1.15487 -0.3829,0.3807 -0.53854,0.56417 -0.75417,0.88897 -1.07122,1.61362 -1.62547,3.9148 -1.33926,5.56039 0.31052,1.78528 2.1883,4.34473 3.8028,5.18327 0.30718,0.15954 0.56363,0.23141 0.96304,0.2699 0.41473,0.04 1.80378,0.0416 2.77101,0.003 z"
       id="path132"
       inkscape:connector-curvature="0" />
    <path
       style="fill:none;stroke-width:0.03307291"
       d="m 89.871844,136.65876 v -2.16154 l 0.292354,-0.0221 c 0.527564,-0.0398 0.633688,-0.10054 0.633688,-0.36251 0,-0.28064 -0.177948,-0.82633 -0.690967,-2.11887 l -0.235075,-0.59222 v -8.36223 -8.36223 h 21.414726 21.41471 v 12.07161 12.07162 H 111.28657 89.871844 Z m 38.877226,-3.57662 V 131.66 l -2.27377,-0.008 -2.27376,-0.008 v -5.47334 -5.47334 h -1.24023 -1.24024 v 6.89019 c 0,3.78961 0.01,6.90018 0.0222,6.91239 0.0122,0.0122 1.59351,0.0184 3.514,0.0138 l 3.4918,-0.008 z m -28.24428,1.21115 c 0.42266,-0.0797 0.91473,-0.23063 1.17357,-0.35989 0.14861,-0.0742 0.19639,-0.12029 0.26458,-0.25507 0.0728,-0.14397 0.083,-0.20582 0.0818,-0.49609 -0.002,-0.35908 -0.11122,-0.84865 -0.25591,-1.1419 -0.0638,-0.12938 -0.096,-0.15631 -0.24605,-0.2061 -0.24708,-0.082 -0.81341,-0.14859 -1.613335,-0.18974 -1.772799,-0.0912 -2.188525,-0.13591 -2.602403,-0.27985 -0.644011,-0.22396 -1.011687,-0.63821 -1.543772,-1.73934 -0.447336,-0.92574 -0.607586,-1.52833 -0.611081,-2.29786 -0.0024,-0.53746 0.05307,-0.87036 0.229756,-1.37798 0.444738,-1.2777 1.285697,-2.1623 2.394296,-2.51854 0.539375,-0.17332 0.810969,-0.20471 1.653644,-0.19109 1.746555,0.0282 1.719415,0.0291 1.883885,-0.063 0.16031,-0.0898 0.27711,-0.23824 0.33534,-0.42606 0.0572,-0.18453 0.0778,-1.14468 0.0296,-1.37805 -0.0338,-0.16366 -0.0665,-0.22264 -0.19389,-0.35023 -0.28097,-0.28136 -0.72419,-0.34558 -2.170665,-0.31448 -1.963328,0.0422 -2.494622,0.12916 -3.387797,0.55449 -0.627398,0.29876 -1.010618,0.56899 -1.491504,1.05176 -0.307887,0.3091 -0.484309,0.52122 -0.686138,0.82498 -0.584637,0.87991 -1.009584,1.937 -1.138558,2.83225 -0.06155,0.42725 -0.05996,3.01462 0.0021,3.3569 0.136369,0.75256 0.682252,1.88243 1.260372,2.60872 1.059132,1.33059 2.689018,2.18119 4.631269,2.41696 0.432472,0.0525 1.586281,0.0175 2.000921,-0.0607 z m 11.34402,-0.0376 c 2.39373,-0.0948 2.95185,-0.2967 4.19562,-1.51787 0.84638,-0.831 1.3083,-1.44092 1.69212,-2.23427 0.43847,-0.9063 0.61389,-1.6978 0.6123,-2.76263 -0.001,-0.65962 -0.0706,-1.21831 -0.23032,-1.84797 -0.64539,-2.54445 -2.13835,-4.25708 -4.34079,-4.97945 -0.90835,-0.29793 -1.66494,-0.39888 -2.78883,-0.37213 -1.32695,0.0316 -2.07785,0.19464 -3.00963,0.65357 -0.62308,0.30688 -0.99684,0.58113 -1.57389,1.15487 -0.3829,0.3807 -0.53854,0.56417 -0.75417,0.88897 -1.07122,1.61362 -1.62547,3.9148 -1.33926,5.56039 0.31052,1.78528 2.1883,4.34473 3.8028,5.18327 0.30718,0.15954 0.56363,0.23141 0.96304,0.2699 0.41473,0.04 1.80378,0.0416 2.77101,0.003 z"
       id="path134"
       inkscape:connector-curvature="0" />
    <path
       style="fill:none;stroke-width:0.13229166"
       d="m 52.509228,138.24237 c -0.0453,-0.27297 -0.122452,-5.69041 -0.171437,-12.03876 l -0.08906,-11.54245 h 40.169801 40.169798 l 0.072,0.29766 c 0.0396,0.16371 0.0556,5.56617 0.0356,12.00547 l -0.0364,11.70781 -40.03396,0.0333 -40.033958,0.0333 z m 9.969555,-9.426 v -5.68854 h 1.984375 1.984375 v -1.18281 c 0,-0.65055 -0.04806,-1.21253 -0.106807,-1.24883 -0.05874,-0.0363 -2.380461,-0.0304 -5.159372,0.0131 l -5.05257,0.0791 v 1.16968 1.16968 h 1.785937 1.785937 v 5.68854 5.68855 h 1.389063 1.389062 z m 8.886309,3.18575 c 0.02387,-1.37653 0.09001,-2.5493 0.147008,-2.60614 0.194188,-0.19368 1.005671,-0.10518 1.275609,0.13911 0.147355,0.13335 0.57526,0.84475 0.9509,1.58088 1.111138,2.17748 1.685684,3.10048 1.990119,3.1971 0.782656,0.24841 2.095889,0.0104 2.095889,-0.37988 0,-0.091 -0.535782,-1.22292 -1.190625,-2.51527 -0.654844,-1.29236 -1.190625,-2.42899 -1.190625,-2.52585 0,-0.0969 0.260196,-0.38933 0.578215,-0.64992 1.024175,-0.83923 1.803035,-2.45007 1.803035,-3.72904 0,-1.29345 -0.914202,-2.6907 -2.154444,-3.29282 -0.65953,-0.32019 -0.8298,-0.33883 -3.876948,-0.42444 l -3.187123,-0.0896 -0.08709,0.8333 c -0.0479,0.45831 -0.0871,3.563 -0.0871,6.8993 v 6.06602 h 1.444903 1.4449 z m 9.914126,2.37112 c 0.571918,-0.10569 0.811461,-0.23626 1.213458,-0.66146 l 0.500872,-0.52978 h 2.189835 2.189834 l 0.567365,0.58377 c 0.489572,0.50374 0.665345,0.59602 1.281962,0.67306 0.393028,0.0491 0.891429,0.0692 1.107553,0.0446 0.799008,-0.0908 0.597218,-0.75881 -2.251485,-7.453 -1.7713,-4.1624 -2.722364,-6.16898 -2.899976,-6.11845 -0.301265,0.0857 -1.720337,3.2511 -4.018068,8.96272 -1.856248,4.6142 -1.72906,4.21794 -1.425509,4.44127 0.303795,0.22351 0.587513,0.23403 1.544159,0.0573 z m 47.477702,-1.32353 v -1.45521 h -2.24749 -2.24749 l -0.0345,-5.45703 -0.0345,-5.45703 -1.22369,-0.038 -1.2237,-0.038 v 6.95028 6.95028 h 3.50573 3.50573 z m -27.25209,0.98571 c 0.36463,-0.21339 0.47238,-0.368 0.50704,-0.72756 0.0585,-0.60661 -0.18948,-1.40014 -0.47127,-1.50828 -0.12452,-0.0478 -1.0616,-0.14584 -2.082395,-0.21792 -2.183533,-0.15416 -2.601525,-0.31239 -3.203081,-1.2125 -0.673095,-1.00715 -1.007968,-2.02178 -1.01798,-3.08439 -0.0075,-0.80019 0.05394,-1.06378 0.423006,-1.81345 0.827225,-1.68034 1.853247,-2.2112 4.273685,-2.2112 1.321245,0 1.438525,-0.0212 1.629645,-0.29401 0.30408,-0.43414 0.27491,-1.62139 -0.0478,-1.94407 -0.35966,-0.35965 -1.45212,-0.46172 -3.248237,-0.30347 -1.229262,0.1083 -1.683607,0.20952 -2.358827,0.52549 -1.135308,0.53128 -2.077844,1.50043 -2.667344,2.74269 -0.641654,1.35216 -0.766368,2.05662 -0.710348,4.01247 0.04641,1.62015 0.06467,1.7112 0.538234,2.68372 0.618739,1.27064 1.634371,2.32545 2.784057,2.89144 1.340461,0.6599 1.973538,0.7911 3.66721,0.75998 1.261245,-0.0232 1.600515,-0.0743 1.984375,-0.29894 z m 11.09057,0.20505 c 0.95594,-0.0862 1.57503,-0.21841 2.05834,-0.43968 1.32855,-0.60823 3.01288,-2.62925 3.48738,-4.18448 0.35734,-1.17125 0.28782,-2.9908 -0.16587,-4.34118 -1.0421,-3.10175 -3.47261,-4.79822 -6.86425,-4.79117 -3.37331,0.007 -5.73877,1.93609 -6.64849,5.422 -0.32456,1.24364 -0.29538,2.9244 0.0662,3.81208 0.82385,2.02267 2.92616,4.27643 4.22445,4.52877 0.70954,0.13791 2.27066,0.13534 3.84226,-0.006 z"
       id="path136"
       inkscape:connector-curvature="0" />
    <path
       style="opacity:0.95999995;fill:#000000;fill-opacity:0.44131458;stroke-width:0.01653646"
       d="m 66.373013,121.97919 c 0.0011,-0.67865 -0.01259,-1.32761 -0.0043,-1.27825 0.03264,0.19349 0.01,0.86913 0.01,1.61697 0,0.78714 0.01701,0.80986 -0.01553,0.80986 -0.03277,0 0.0079,-0.0221 0.0098,-1.14858 z"
       id="path4726"
       inkscape:connector-curvature="0"
       sodipodi:nodetypes="ccsscc" />
    <path
       style="opacity:0.95999995;fill:#000000;fill-opacity:0.44131458;stroke-width:0.01653646"
       d="m 65.060749,120.70659 c 0.02056,-0.004 0.05033,-0.004 0.06615,2.7e-4 0.01582,0.004 -0.0011,0.007 -0.0374,0.007 -0.03638,-1.9e-4 -0.04931,-0.004 -0.02874,-0.008 z"
       id="path4728"
       inkscape:connector-curvature="0" />
  </g>
</svg>
